<svg width="30" height="31" viewBox="0 0 30 31" fill="none" xmlns="http://www.w3.org/2000/svg">
<path d="M26.2654 5.1399L17.3182 0.66675C16.5979 0.308665 15.8044 0.122314 15 0.122314C14.1956 0.122314 13.4021 0.308665 12.6818 0.66675L3.7346 5.1399C2.8715 5.56779 2.14556 6.22896 1.63909 7.04844C1.13263 7.86791 0.865907 8.81289 0.86917 9.77624V20.3747C0.865907 21.338 1.13263 22.283 1.63909 23.1025C2.14556 23.922 2.8715 24.5831 3.7346 25.011L12.6818 29.4846C13.4022 29.8426 14.1956 30.0289 15 30.0289C15.8044 30.0289 16.5979 29.8426 17.3182 29.4846L26.2654 25.011C27.1285 24.5831 27.8544 23.9219 28.3609 23.1025C28.8673 22.283 29.134 21.338 29.1308 20.3747V9.77624C29.134 8.8129 28.8673 7.86793 28.3609 7.04846C27.8544 6.22898 27.1285 5.56781 26.2654 5.1399ZM13.6509 14.6294V26.9525L4.94078 22.5977C4.52702 22.3926 4.179 22.0757 3.93616 21.6828C3.69332 21.29 3.56539 20.837 3.56686 20.3752V9.77624C3.56686 9.70755 3.56982 9.63865 3.57554 9.56933L13.6509 14.6294ZM26.4326 9.77624V20.3747C26.4341 20.8365 26.3062 21.2895 26.0634 21.6823C25.8205 22.0751 25.4725 22.3921 25.0587 22.5972L16.3486 26.952V14.6315L26.4265 9.60034C26.4306 9.65876 26.4326 9.71771 26.4326 9.77624ZM15.0017 12.2885L5.25807 7.39478L13.8884 3.07975C14.2338 2.90811 14.6143 2.81879 15 2.81879C15.3856 2.81879 15.7661 2.90811 16.1115 3.07975L24.7728 7.41033L15.0017 12.2885Z" fill="#484463"/>
<path d="M26.4326 9.77624V20.3747C26.4341 20.8365 26.3062 21.2895 26.0633 21.6823C25.8205 22.0751 25.4725 22.3921 25.0587 22.5972L16.3486 26.952V14.6315L26.4265 9.60034C26.4306 9.65876 26.4326 9.71771 26.4326 9.77624Z" fill="#DFE8EF"/>
</svg>
