<svg width="26" height="31" viewBox="0 0 26 31" fill="none" xmlns="http://www.w3.org/2000/svg">
<path d="M9.1414 6.09903C7.88897 6.09903 6.87012 7.21409 6.87012 8.58452V21.4856L6.93362 21.4455C7.59367 21.0259 8.35926 20.8022 9.1414 20.8005H22.5521V6.09903H9.1414Z" fill="#DFE8EF"/>
<path d="M22.4989 0.0689697H6.21478C4.76165 0.0706504 3.36853 0.648654 2.34102 1.67618C1.31352 2.7037 0.735539 4.09684 0.733887 5.54996V24.548C0.735539 26.0011 1.31352 27.3942 2.34103 28.4217C3.36853 29.4492 4.76166 30.0272 6.21478 30.0289H22.4989C23.2325 30.028 23.9358 29.7363 24.4545 29.2176C24.9732 28.6988 25.265 27.9955 25.2658 27.262V2.8363C25.2651 2.10264 24.9734 1.39923 24.4546 0.880424C23.9359 0.361613 23.2326 0.0697823 22.4989 0.0689697ZM3.55381 5.54996C3.55468 4.84452 3.83532 4.16822 4.33416 3.66941C4.83301 3.17061 5.50933 2.89002 6.21478 2.88921H22.446V19.0671H6.21478C5.28375 19.0666 4.36796 19.3034 3.55381 19.755V5.54996ZM7.51896 24.548C7.51938 24.9218 7.66806 25.2801 7.93237 25.5445C8.19669 25.8088 8.55506 25.9575 8.92887 25.9579H22.446V27.209H6.21478C5.50902 27.209 4.83216 26.9287 4.33311 26.4296C3.83407 25.9306 3.55371 25.2537 3.55371 24.548C3.55371 23.8422 3.83407 23.1654 4.33311 22.6663C4.83216 22.1673 5.50902 21.8869 6.21478 21.8869H22.446V23.1381H8.92887C8.55506 23.1385 8.19669 23.2872 7.93237 23.5515C7.66806 23.8158 7.51938 24.1742 7.51896 24.548Z" fill="#484463"/>
</svg>
