<svg width="30" height="31" viewBox="0 0 30 31" fill="none" xmlns="http://www.w3.org/2000/svg">
<path d="M24.3986 9.86918C22.5002 7.27171 18.8152 5.45752 15.4373 5.45752C12.7772 5.46068 10.227 6.51883 8.34616 8.39983C6.46528 10.2808 5.40729 12.8311 5.4043 15.4911C5.4043 19.0182 7.38708 22.9258 10.119 24.7824C11.2154 25.5277 12.3579 25.9043 13.4961 25.9043C14.1748 25.9021 14.847 25.771 15.4768 25.5178C20.5712 23.5008 24.0256 20.045 25.4662 15.5237C26.0747 13.6126 25.7056 11.6574 24.3986 9.86918Z" fill="#DFE8EF"/>
<path d="M29.4912 27.3961L23.0398 20.9444C24.8344 18.6816 25.8058 15.8757 25.7945 12.9877C25.7944 10.443 25.0398 7.95544 23.6259 5.83966C22.2121 3.72387 20.2027 2.07483 17.8516 1.10108C15.5006 0.127337 12.9137 -0.127391 10.4179 0.369113C7.9221 0.865616 5.6296 2.09105 3.83027 3.89046C2.03094 5.68986 0.805596 7.98241 0.309195 10.4782C-0.187206 12.974 0.0676286 15.561 1.04147 17.9119C2.01532 20.2629 3.66443 22.2723 5.78028 23.686C7.89613 25.0998 10.3837 25.8543 12.9284 25.8543C15.8164 25.8656 18.6223 24.8942 20.8852 23.0997L27.3366 29.5509C27.4769 29.6976 27.6451 29.8149 27.8313 29.8957C28.0176 29.9766 28.2181 30.0194 28.4211 30.0217C28.6241 30.024 28.8255 29.9857 29.0135 29.909C29.2015 29.8324 29.3723 29.7189 29.5159 29.5754C29.6594 29.4318 29.7729 29.261 29.8495 29.073C29.9261 28.885 29.9644 28.6836 29.9621 28.4806C29.9598 28.2775 29.917 28.077 29.8361 27.8908C29.7553 27.7046 29.638 27.5364 29.4913 27.3961H29.4912ZM22.7474 12.9881C22.7474 14.9301 22.1715 16.8284 21.0926 18.4431C20.0137 20.0579 18.4802 21.3164 16.686 22.0595C14.8919 22.8027 12.9176 22.9972 11.0129 22.6183C9.10827 22.2394 7.35871 21.3043 5.98551 19.9311C4.61231 18.5579 3.67715 16.8084 3.29827 14.9037C2.91939 12.999 3.11383 11.0248 3.85698 9.23063C4.60013 7.43646 5.85862 5.90295 7.47332 4.82402C9.08801 3.7451 10.9864 3.16921 12.9284 3.16919C15.5316 3.17211 18.0274 4.20752 19.8682 6.04829C21.709 7.88905 22.7444 10.3848 22.7474 12.9881V12.9881Z" fill="#484463"/>
</svg>
