<svg width="30" height="30" viewBox="0 0 30 30" fill="none" xmlns="http://www.w3.org/2000/svg">
<g clip-path="url(#clip0_111_148)">
<path d="M25.2166 9.72966L18.4009 4.33069L18.3501 4.34371C17.7117 4.50822 17.1168 4.81005 16.6071 5.22815L9.06328 10.9098L9.06021 10.9122C7.84176 11.9024 7.11426 13.4928 7.11426 15.1667V26.275C7.11424 26.544 7.13266 26.8128 7.1694 27.0793L7.18199 27.1708H23.4803C24.2578 27.1698 25.0032 26.8605 25.553 26.3107C26.1028 25.761 26.412 25.0155 26.4129 24.238V12.0931C26.4123 11.633 26.3038 11.1795 26.096 10.769C25.8882 10.3585 25.587 10.0025 25.2166 9.72966Z" fill="#DFE8EF"/>
<path d="M29.2013 11.43C29.109 10.6425 28.8557 9.88236 28.4569 9.19702C28.0582 8.51168 27.5226 7.91577 26.8835 7.44642L18.4031 1.23507C17.4171 0.508637 16.2245 0.11676 14.9998 0.11676C13.7751 0.11676 12.5826 0.508637 11.5966 1.23507L3.11593 7.44663C2.38692 7.98256 1.79393 8.68218 1.38469 9.48915C0.975454 10.2961 0.761401 11.1879 0.759766 12.0927V24.2376C0.761474 25.7646 1.36882 27.2285 2.44855 28.3083C3.52828 29.388 4.99222 29.9954 6.51921 29.9971H23.4805C25.0075 29.9954 26.4714 29.3881 27.5512 28.3083C28.6309 27.2286 29.2383 25.7646 29.24 24.2376V12.0931C29.2398 11.8715 29.2269 11.6501 29.2013 11.43ZM14.9998 3.15795C15.5784 3.15838 16.1417 3.34347 16.6078 3.68627L25.0883 9.89804C25.4327 10.1513 25.7129 10.4818 25.9062 10.8631C26.0995 11.2443 26.2007 11.6656 26.2014 12.0931V24.2376C26.2006 24.959 25.9137 25.6506 25.4036 26.1608C24.8935 26.6709 24.2019 26.9579 23.4805 26.9587H6.51921C5.7978 26.9578 5.10618 26.6709 4.59608 26.1607C4.08598 25.6506 3.79905 24.959 3.79824 24.2376V12.0931C3.799 11.6656 3.90012 11.2443 4.09346 10.8631C4.28681 10.4818 4.56697 10.1513 4.91139 9.89804L13.392 3.68627C13.858 3.34343 14.4213 3.15833 14.9998 3.15795Z" fill="#484463"/>
</g>
<defs>
<clipPath id="clip0_111_148">
<rect width="30" height="30" fill="white"/>
</clipPath>
</defs>
</svg>
