<svg width="32" height="32" viewBox="0 0 32 32" fill="none" xmlns="http://www.w3.org/2000/svg">
<path d="M6.21948 21.2715C6.21924 22.028 6.27584 22.7835 6.38882 23.5315C7.45452 24.8926 8.79705 26.0118 10.3276 26.8153C11.8582 27.6187 13.5419 28.0881 15.2674 28.1922C16.9929 28.2964 18.7208 28.033 20.3369 27.4195C21.953 26.806 23.4204 25.8563 24.6421 24.6334C25.8638 23.4104 26.8119 21.942 27.4237 20.3252C28.0355 18.7085 28.2971 16.9803 28.1911 15.2549C28.0851 13.5295 27.614 11.8463 26.809 10.3166C26.0039 8.78688 24.8833 7.44552 23.5211 6.38125C22.7784 6.26982 22.0284 6.21389 21.2774 6.21393C12.9742 6.21393 6.21948 12.9686 6.21948 21.2715ZM11.9089 13.3302C11.6278 13.3302 11.353 13.2468 11.1193 13.0906C10.8856 12.9345 10.7035 12.7125 10.5959 12.4529C10.4883 12.1932 10.4602 11.9074 10.515 11.6318C10.5699 11.3561 10.7052 11.1029 10.904 10.9041C11.1027 10.7054 11.3559 10.57 11.6316 10.5152C11.9073 10.4604 12.193 10.4885 12.4527 10.5961C12.7124 10.7036 12.9343 10.8858 13.0905 11.1195C13.2466 11.3532 13.33 11.628 13.33 11.909C13.3296 12.2858 13.1797 12.647 12.9133 12.9134C12.6469 13.1799 12.2856 13.3297 11.9089 13.3302V13.3302ZM20.0907 13.3302C19.8096 13.3302 19.5349 13.2468 19.3012 13.0907C19.0674 12.9346 18.8853 12.7126 18.7777 12.4529C18.6701 12.1933 18.642 11.9075 18.6968 11.6318C18.7516 11.3562 18.8869 11.1029 19.0857 10.9042C19.2844 10.7054 19.5377 10.5701 19.8133 10.5152C20.089 10.4604 20.3747 10.4885 20.6344 10.5961C20.8941 10.7036 21.1161 10.8858 21.2722 11.1195C21.4284 11.3532 21.5117 11.6279 21.5117 11.909C21.5113 12.2858 21.3615 12.647 21.0951 12.9134C20.8287 13.1798 20.4675 13.3297 20.0907 13.3302V13.3302Z" fill="#DFE8EF"/>
<path d="M20.0908 13.3302C20.8757 13.3302 21.5119 12.6939 21.5119 11.909C21.5119 11.1242 20.8757 10.4879 20.0908 10.4879C19.3059 10.4879 18.6697 11.1242 18.6697 11.909C18.6697 12.6939 19.3059 13.3302 20.0908 13.3302Z" fill="#484463"/>
<path d="M11.9089 13.3302C12.6938 13.3302 13.33 12.6939 13.33 11.909C13.33 11.1242 12.6938 10.4879 11.9089 10.4879C11.1241 10.4879 10.4878 11.1242 10.4878 11.909C10.4878 12.6939 11.1241 13.3302 11.9089 13.3302Z" fill="#484463"/>
<path d="M28.9452 8.31779C27.612 6.07159 25.7177 4.21064 23.4482 2.91761C21.1786 1.62457 18.6118 0.943894 15.9998 0.942383C7.69708 0.942383 0.942383 7.69719 0.942383 15.9999C0.945466 19.9924 2.53285 23.8206 5.356 26.6437C8.17914 29.4669 12.0073 31.0543 15.9998 31.0574C24.3026 31.0574 31.0573 24.3026 31.0573 15.9999C31.0604 13.2954 30.3305 10.6406 28.9452 8.31779V8.31779ZM15.9998 28.2152C13.5851 28.2143 11.2249 27.4975 9.2175 26.1554C7.21013 24.8133 5.64572 22.9062 4.72207 20.6752C3.79841 18.4441 3.55697 15.9893 4.02827 13.621C4.49957 11.2528 5.66244 9.07744 7.36989 7.37C9.07734 5.66255 11.2527 4.49967 13.6209 4.02837C15.9892 3.55707 18.444 3.79851 20.6751 4.72217C22.9061 5.64583 24.8132 7.21023 26.1553 9.21761C27.4974 11.225 28.2142 13.5852 28.2151 15.9999C28.217 17.6046 27.9024 19.1939 27.2892 20.6768C26.676 22.1597 25.7763 23.5071 24.6416 24.6417C23.507 25.7764 22.1596 26.6761 20.6767 27.2893C19.1938 27.9025 17.6045 28.2171 15.9998 28.2152Z" fill="#484463"/>
<path d="M15.9999 20.4263C17.918 20.4263 19.4729 18.8713 19.4729 16.9532C19.4729 15.0351 17.918 13.4802 15.9999 13.4802C14.0818 13.4802 12.5269 15.0351 12.5269 16.9532C12.5269 18.8713 14.0818 20.4263 15.9999 20.4263Z" fill="#484463"/>
</svg>
